<svg width="160" height="146" viewBox="0 0 160 146" fill="none" xmlns="http://www.w3.org/2000/svg">
<path d="M146.288 14.348C142.458 10.3541 137.91 7.18581 132.905 5.0242C127.9 2.86259 122.535 1.75 117.117 1.75C111.7 1.75 106.335 2.86259 101.33 5.0242C96.3245 7.18581 91.7769 10.3541 87.9468 14.348L79.998 22.633L72.0492 14.348C64.3126 6.28433 53.8197 1.75418 42.8785 1.75418C31.9374 1.75418 21.4444 6.28433 13.7079 14.348C5.97134 22.4117 1.625 33.3485 1.625 44.7523C1.625 56.1561 5.97134 67.0928 13.7079 75.1565L21.6567 83.4415L79.998 144.25L138.339 83.4415L146.288 75.1565C150.12 71.1645 153.16 66.4246 155.234 61.2077C157.308 55.9909 158.375 50.3993 158.375 44.7523C158.375 39.1053 157.308 33.5137 155.234 28.2968C153.16 23.08 150.12 18.3401 146.288 14.348Z" fill="#FAFAFA" stroke="#FAFAFA" stroke-width="3.2315" stroke-linecap="round" stroke-linejoin="round"/>
</svg>
