<svg width="166" height="152" viewBox="0 0 166 152" fill="none" xmlns="http://www.w3.org/2000/svg">
<path d="M149.288 17.348C145.458 13.3541 140.91 10.1858 135.905 8.0242C130.9 5.86259 125.535 4.75 120.117 4.75C114.7 4.75 109.335 5.86259 104.33 8.0242C99.3245 10.1858 94.7769 13.3541 90.9468 17.348L82.998 25.633L75.0492 17.348C67.3126 9.28433 56.8197 4.75418 45.8785 4.75418C34.9374 4.75418 24.4444 9.28433 16.7079 17.348C8.97134 25.4117 4.625 36.3485 4.625 47.7523C4.625 59.1561 8.97134 70.0928 16.7079 78.1565L24.6567 86.4415L82.998 147.25L141.339 86.4415L149.288 78.1565C153.12 74.1645 156.16 69.4246 158.234 64.2077C160.308 58.9909 161.375 53.3992 161.375 47.7523C161.375 42.1053 160.308 36.5137 158.234 31.2968C156.16 26.08 153.12 21.3401 149.288 17.348V17.348Z" stroke="#FAFAFA" stroke-width="8" stroke-linecap="round" stroke-linejoin="round"/>
</svg>
