<svg width="24" height="22" viewBox="0 0 24 22" fill="none" xmlns="http://www.w3.org/2000/svg">
<path d="M20.4704 3.49372C19.9806 2.98301 19.3992 2.57789 18.7591 2.30148C18.1191 2.02508 17.4331 1.88281 16.7404 1.88281C16.0476 1.88281 15.3616 2.02508 14.7216 2.30148C14.0816 2.57789 13.5001 2.98301 13.0103 3.49372L11.9939 4.55311L10.9775 3.49372C9.98825 2.46261 8.64651 1.88335 7.24748 1.88335C5.84844 1.88335 4.50671 2.46261 3.51744 3.49372C2.52818 4.52482 1.97241 5.92329 1.97241 7.38149C1.97241 8.83969 2.52818 10.2382 3.51744 11.2693L4.53385 12.3287L11.9939 20.1042L19.454 12.3287L20.4704 11.2693C20.9604 10.7588 21.3491 10.1527 21.6143 9.48564C21.8795 8.81856 22.0159 8.10356 22.0159 7.38149C22.0159 6.65942 21.8795 5.94442 21.6143 5.27734C21.3491 4.61026 20.9604 4.00418 20.4704 3.49372V3.49372Z" stroke="#F0F0F0" stroke-width="3.2315" stroke-linecap="round" stroke-linejoin="round"/>
</svg>
