<svg width="26" height="24" viewBox="0 0 26 24" fill="none" xmlns="http://www.w3.org/2000/svg">
<path d="M22.3036 3.76815C21.766 3.20759 21.1278 2.76292 20.4253 2.45954C19.7228 2.15615 18.9699 2 18.2095 2C17.4491 2 16.6961 2.15615 15.9936 2.45954C15.2912 2.76292 14.6529 3.20759 14.1153 3.76815L12.9997 4.93095L11.8841 3.76815C10.7983 2.6364 9.32556 2.00059 7.78997 2.00059C6.25437 2.00059 4.78167 2.6364 3.69584 3.76815C2.61001 4.89989 2 6.43487 2 8.03541C2 9.63594 2.61001 11.1709 3.69584 12.3027L4.81147 13.4655L12.9997 22L21.188 13.4655L22.3036 12.3027C22.8414 11.7424 23.268 11.0771 23.5591 10.3449C23.8502 9.61276 24 8.82796 24 8.03541C24 7.24285 23.8502 6.45806 23.5591 5.72587C23.268 4.99368 22.8414 4.32844 22.3036 3.76815V3.76815Z" stroke="#212121" stroke-width="3" stroke-linecap="round" stroke-linejoin="round"/>
</svg>
