<svg width="16" height="16" viewBox="0 0 16 16" fill="none" xmlns="http://www.w3.org/2000/svg">
<circle cx="7.98826" cy="7.99965" r="7" transform="rotate(3.68833 7.98826 7.99965)" fill="#00FF85"/>
<mask id="path-2-inside-1_3292_24924" fill="white">
<path d="M10.1429 1.33949C11.7225 1.85053 13.0692 2.90641 13.9422 4.31859C14.8153 5.73077 15.158 7.4073 14.9092 9.04883C14.6603 10.6904 13.8361 12.19 12.5837 13.28C11.3313 14.3699 9.7323 14.9793 8.07214 14.9991C6.41198 15.019 4.79879 14.4482 3.52064 13.3886C2.24248 12.3289 1.38257 10.8495 1.09446 9.21437C0.806353 7.57928 1.1088 5.89501 1.94779 4.46232C2.78679 3.02962 4.1077 1.94178 5.67468 1.39304L5.94732 2.17158C4.565 2.65566 3.39974 3.6153 2.65962 4.87917C1.9195 6.14303 1.65269 7.62881 1.90685 9.07122C2.16101 10.5136 2.91958 11.8187 4.04712 12.7535C5.17465 13.6883 6.59773 14.1919 8.06225 14.1743C9.52677 14.1568 10.9374 13.6192 12.0422 12.6577C13.147 11.6962 13.8741 10.3733 14.0936 8.92519C14.3131 7.47711 14.0108 5.99814 13.2406 4.75237C12.4704 3.50661 11.2825 2.57516 9.88897 2.12435L10.1429 1.33949Z"/>
</mask>
<path d="M10.1429 1.33949C11.7225 1.85053 13.0692 2.90641 13.9422 4.31859C14.8153 5.73077 15.158 7.4073 14.9092 9.04883C14.6603 10.6904 13.8361 12.19 12.5837 13.28C11.3313 14.3699 9.7323 14.9793 8.07214 14.9991C6.41198 15.019 4.79879 14.4482 3.52064 13.3886C2.24248 12.3289 1.38257 10.8495 1.09446 9.21437C0.806353 7.57928 1.1088 5.89501 1.94779 4.46232C2.78679 3.02962 4.1077 1.94178 5.67468 1.39304L5.94732 2.17158C4.565 2.65566 3.39974 3.6153 2.65962 4.87917C1.9195 6.14303 1.65269 7.62881 1.90685 9.07122C2.16101 10.5136 2.91958 11.8187 4.04712 12.7535C5.17465 13.6883 6.59773 14.1919 8.06225 14.1743C9.52677 14.1568 10.9374 13.6192 12.0422 12.6577C13.147 11.6962 13.8741 10.3733 14.0936 8.92519C14.3131 7.47711 14.0108 5.99814 13.2406 4.75237C12.4704 3.50661 11.2825 2.57516 9.88897 2.12435L10.1429 1.33949Z" fill="#D9D9D9" stroke="black" stroke-width="2" mask="url(#path-2-inside-1_3292_24924)"/>
<path d="M11.0647 0.816896L9.47296 1.48816L10.1442 3.07987" stroke="black" stroke-linecap="round"/>
<path d="M5.172 6.51815H7.04416C7.04416 6.51815 7.08422 5.42368 8.08586 5.42368C8.08586 5.42368 8.90539 5.42368 8.81433 6.24453C8.81433 6.24453 8.81433 6.88298 7.63057 7.1566C7.63057 7.1566 5.80941 7.52142 5.44517 8.34228C5.44517 8.34228 4.44353 9.52796 5.44517 11.0785C5.44517 11.0785 6.08258 11.9905 7.72163 12.0817C7.72163 12.0817 9.72491 12.2641 10.6355 10.8961C10.6355 10.8961 10.9997 10.44 11.0908 9.52796H9.17856C9.17856 9.52796 8.99644 10.6224 7.81269 10.6224C7.81269 10.6224 7.08422 10.5312 6.99316 9.89279C6.9021 9.25434 7.81269 8.98072 7.81269 8.98072C7.81269 8.98072 9.17856 8.7071 9.90703 8.15987C9.90703 8.15987 11.364 7.1566 10.4534 5.24126C10.4534 5.24126 9.72491 3.69076 7.44845 4.05558C7.44845 4.05558 5.44517 4.14679 5.172 6.51815Z" fill="black"/>
</svg>
