<svg width="22" height="21" viewBox="0 0 22 21" fill="none" xmlns="http://www.w3.org/2000/svg">
<path d="M19.4708 2.93219C18.981 2.42149 18.3995 2.01636 17.7595 1.73996C17.1195 1.46355 16.4335 1.32129 15.7407 1.32129C15.048 1.32129 14.362 1.46355 13.722 1.73996C13.0819 2.01636 12.5005 2.42149 12.0107 2.93219L10.9943 3.99159L9.97788 2.93219C8.98861 1.90109 7.64688 1.32182 6.24784 1.32182C4.84881 1.32182 3.50708 1.90109 2.51781 2.93219C1.52854 3.96329 0.972778 5.36177 0.972778 6.81997C0.972778 8.27816 1.52854 9.67664 2.51781 10.7077L3.53422 11.7671L10.9943 19.5427L18.4544 11.7671L19.4708 10.7077C19.9608 10.1973 20.3494 9.59119 20.6146 8.92412C20.8798 8.25704 21.0163 7.54204 21.0163 6.81997C21.0163 6.09789 20.8798 5.38289 20.6146 4.71582C20.3494 4.04874 19.9608 3.44266 19.4708 2.93219Z" fill="#FAFAFA" stroke="#FAFAFA" stroke-linecap="round" stroke-linejoin="round"/>
</svg>
