<svg width="10" height="10" viewBox="0 0 10 10" fill="none" xmlns="http://www.w3.org/2000/svg">
<path d="M9.22891 1.29567C8.98456 1.04342 8.69445 0.843314 8.37514 0.706791C8.05583 0.570269 7.71358 0.5 7.36794 0.5C7.0223 0.5 6.68005 0.570269 6.36074 0.706791C6.04143 0.843314 5.75132 1.04342 5.50697 1.29567L4.99987 1.81893L4.49277 1.29567C3.99921 0.786378 3.3298 0.500264 2.6318 0.500264C1.93381 0.500264 1.2644 0.786378 0.770838 1.29567C0.277279 1.80495 5.20049e-09 2.49569 0 3.21593C-5.20049e-09 3.93617 0.277279 4.62692 0.770838 5.1362L1.27794 5.65946L4.99987 9.5L8.72181 5.65946L9.22891 5.1362C9.47337 4.88407 9.66729 4.58471 9.79959 4.25523C9.9319 3.92574 10 3.57258 10 3.21593C10 2.85928 9.9319 2.50613 9.79959 2.17664C9.66729 1.84716 9.47337 1.5478 9.22891 1.29567Z" fill="white"/>
</svg>
