<svg width="125" height="30" viewBox="0 0 125 30" fill="none" xmlns="http://www.w3.org/2000/svg">
<path d="M0.32 29H20.84V23.72H6.8V0.999998H0.32V29ZM39.9519 29.48C48.7519 29.48 55.2719 23.36 55.2719 15C55.2719 6.64 48.7519 0.52 39.9519 0.52C31.1119 0.52 24.6319 6.68 24.6319 15C24.6319 23.32 31.1119 29.48 39.9519 29.48ZM39.9519 23.96C34.9519 23.96 31.1919 20.32 31.1919 15C31.1919 9.68 34.9519 6.04 39.9519 6.04C44.9519 6.04 48.7119 9.68 48.7119 15C48.7119 20.32 44.9519 23.96 39.9519 23.96ZM81.4619 22.76C79.8219 23.64 78.1819 23.96 76.4219 23.96C71.0619 23.96 67.3419 20.24 67.3419 15C67.3419 9.68 71.0619 6.04 76.5019 6.04C79.3419 6.04 81.7019 7.04 83.7419 9.2L87.9019 5.36C85.1819 2.2 81.1019 0.52 76.1819 0.52C67.2619 0.52 60.7819 6.56 60.7819 15C60.7819 23.44 67.2619 29.48 76.0619 29.48C80.0619 29.48 84.3019 28.24 87.3819 25.92V14.56H81.4619V22.76ZM109.361 29.48C118.161 29.48 124.681 23.36 124.681 15C124.681 6.64 118.161 0.52 109.361 0.52C100.521 0.52 94.0412 6.68 94.0412 15C94.0412 23.32 100.521 29.48 109.361 29.48ZM109.361 23.96C104.361 23.96 100.601 20.32 100.601 15C100.601 9.68 104.361 6.04 109.361 6.04C114.361 6.04 118.121 9.68 118.121 15C118.121 20.32 114.361 23.96 109.361 23.96Z" fill="#00FF85"/>
<path d="M0.32 29H-0.68V30H0.32V29ZM20.84 29V30H21.84V29H20.84ZM20.84 23.72H21.84V22.72H20.84V23.72ZM6.8 23.72H5.8V24.72H6.8V23.72ZM6.8 0.999998H7.8V-1.90735e-06H6.8V0.999998ZM0.32 0.999998V-1.90735e-06H-0.68V0.999998H0.32ZM0.32 30H20.84V28H0.32V30ZM21.84 29V23.72H19.84V29H21.84ZM20.84 22.72H6.8V24.72H20.84V22.72ZM7.8 23.72V0.999998H5.8V23.72H7.8ZM6.8 -1.90735e-06H0.32V2H6.8V-1.90735e-06ZM-0.68 0.999998V29H1.32V0.999998H-0.68ZM39.9519 30.48C49.2483 30.48 56.2719 23.9665 56.2719 15H54.2719C54.2719 22.7534 48.2555 28.48 39.9519 28.48V30.48ZM56.2719 15C56.2719 6.03345 49.2483 -0.48 39.9519 -0.48V1.52C48.2555 1.52 54.2719 7.24655 54.2719 15H56.2719ZM39.9519 -0.48C30.6118 -0.48 23.6319 6.0769 23.6319 15H25.6319C25.6319 7.2831 31.6119 1.52 39.9519 1.52V-0.48ZM23.6319 15C23.6319 23.9231 30.6118 30.48 39.9519 30.48V28.48C31.6119 28.48 25.6319 22.7169 25.6319 15H23.6319ZM39.9519 22.96C35.5102 22.96 32.1919 19.7737 32.1919 15H30.1919C30.1919 20.8663 34.3936 24.96 39.9519 24.96V22.96ZM32.1919 15C32.1919 10.2263 35.5102 7.04 39.9519 7.04V5.04C34.3936 5.04 30.1919 9.13373 30.1919 15H32.1919ZM39.9519 7.04C44.3936 7.04 47.7119 10.2263 47.7119 15H49.7119C49.7119 9.13373 45.5102 5.04 39.9519 5.04V7.04ZM47.7119 15C47.7119 19.7737 44.3936 22.96 39.9519 22.96V24.96C45.5102 24.96 49.7119 20.8663 49.7119 15H47.7119ZM81.4619 22.76L81.9347 23.6412L82.4619 23.3583V22.76H81.4619ZM83.7419 9.2L83.0149 9.88662L83.6937 10.6054L84.4202 9.9348L83.7419 9.2ZM87.9019 5.36L88.5802 6.0948L89.2899 5.43967L88.6598 4.70763L87.9019 5.36ZM87.3819 25.92L87.9835 26.7188L88.3819 26.4187V25.92H87.3819ZM87.3819 14.56H88.3819V13.56H87.3819V14.56ZM81.4619 14.56V13.56H80.4619V14.56H81.4619ZM80.9891 21.8788C79.5205 22.6669 78.0492 22.96 76.4219 22.96V24.96C78.3145 24.96 80.1233 24.6131 81.9347 23.6412L80.9891 21.8788ZM76.4219 22.96C73.979 22.96 71.9704 22.1162 70.5756 20.7346C69.1813 19.3533 68.3419 17.3766 68.3419 15H66.3419C66.3419 17.8634 67.3625 20.3667 69.1681 22.1554C70.9734 23.9438 73.5048 24.96 76.4219 24.96V22.96ZM68.3419 15C68.3419 12.5805 69.1829 10.6077 70.5812 9.23983C71.9811 7.87029 74.009 7.04 76.5019 7.04V5.04C73.5547 5.04 71.0026 6.02971 69.1826 7.81017C67.3608 9.59234 66.3419 12.0995 66.3419 15H68.3419ZM76.5019 7.04C79.064 7.04 81.1618 7.92461 83.0149 9.88662L84.4689 8.51337C82.2419 6.15539 79.6198 5.04 76.5019 5.04V7.04ZM84.4202 9.9348L88.5802 6.0948L87.2236 4.6252L83.0636 8.46519L84.4202 9.9348ZM88.6598 4.70763C85.7144 1.28576 81.334 -0.48 76.1819 -0.48V1.52C80.8698 1.52 84.6494 3.11424 87.144 6.01237L88.6598 4.70763ZM76.1819 -0.48C66.771 -0.48 59.7819 5.94823 59.7819 15H61.7819C61.7819 7.17176 67.7527 1.52 76.1819 1.52V-0.48ZM59.7819 15C59.7819 24.0468 66.7657 30.48 76.0619 30.48V28.48C67.7581 28.48 61.7819 22.8332 61.7819 15H59.7819ZM76.0619 30.48C80.2447 30.48 84.7046 29.1886 87.9835 26.7188L86.7802 25.1212C83.8991 27.2914 79.8791 28.48 76.0619 28.48V30.48ZM88.3819 25.92V14.56H86.3819V25.92H88.3819ZM87.3819 13.56H81.4619V15.56H87.3819V13.56ZM80.4619 14.56V22.76H82.4619V14.56H80.4619ZM109.361 30.48C118.658 30.48 125.681 23.9665 125.681 15H123.681C123.681 22.7534 117.665 28.48 109.361 28.48V30.48ZM125.681 15C125.681 6.03345 118.658 -0.48 109.361 -0.48V1.52C117.665 1.52 123.681 7.24655 123.681 15H125.681ZM109.361 -0.48C100.021 -0.48 93.0412 6.0769 93.0412 15H95.0412C95.0412 7.2831 101.021 1.52 109.361 1.52V-0.48ZM93.0412 15C93.0412 23.9231 100.021 30.48 109.361 30.48V28.48C101.021 28.48 95.0412 22.7169 95.0412 15H93.0412ZM109.361 22.96C104.92 22.96 101.601 19.7737 101.601 15H99.6012C99.6012 20.8663 103.803 24.96 109.361 24.96V22.96ZM101.601 15C101.601 10.2263 104.92 7.04 109.361 7.04V5.04C103.803 5.04 99.6012 9.13373 99.6012 15H101.601ZM109.361 7.04C113.803 7.04 117.121 10.2263 117.121 15H119.121C119.121 9.13373 114.92 5.04 109.361 5.04V7.04ZM117.121 15C117.121 19.7737 113.803 22.96 109.361 22.96V24.96C114.92 24.96 119.121 20.8663 119.121 15H117.121Z" fill="black"/>
</svg>
