<svg width="24" height="26" viewBox="0 0 24 26" fill="none" xmlns="http://www.w3.org/2000/svg">
<path fill-rule="evenodd" clip-rule="evenodd" d="M23.5999 4.59995C23.5999 7.03 21.63 8.99995 19.1999 8.99995C18.0474 8.99995 16.9983 8.55682 16.2139 7.83165L9.06549 11.9164C9.15327 12.2631 9.1999 12.6261 9.1999 13C9.1999 13.561 9.0949 14.0975 8.90348 14.5909L15.8424 18.556C16.6495 17.6041 17.8542 17 19.1999 17C21.63 17 23.5999 18.9699 23.5999 21.4C23.5999 23.83 21.63 25.7999 19.1999 25.7999C16.7698 25.7999 14.7999 23.83 14.7999 21.4C14.7999 21.2166 14.8111 21.0359 14.8329 20.8585L7.35272 16.5841C6.63283 17.0978 5.75166 17.4 4.7999 17.4C2.36985 17.4 0.399902 15.43 0.399902 13C0.399902 10.5699 2.36985 8.59995 4.7999 8.59995C5.95243 8.59995 7.00147 9.04308 7.78592 9.76825L14.9343 5.68346C14.8465 5.33685 14.7999 4.97385 14.7999 4.59995C14.7999 2.1699 16.7698 0.199951 19.1999 0.199951C21.63 0.199951 23.5999 2.1699 23.5999 4.59995ZM19.1999 6.99995C20.5254 6.99995 21.5999 5.92544 21.5999 4.59995C21.5999 3.27447 20.5254 2.19995 19.1999 2.19995C17.8744 2.19995 16.7999 3.27447 16.7999 4.59995C16.7999 5.92544 17.8744 6.99995 19.1999 6.99995ZM4.7999 15.4C6.12539 15.4 7.1999 14.3254 7.1999 13C7.1999 11.6745 6.12539 10.6 4.7999 10.6C3.47442 10.6 2.3999 11.6745 2.3999 13C2.3999 14.3254 3.47442 15.4 4.7999 15.4ZM21.5999 21.4C21.5999 22.7254 20.5254 23.7999 19.1999 23.7999C17.8744 23.7999 16.7999 22.7254 16.7999 21.4C16.7999 20.0745 17.8744 19 19.1999 19C20.5254 19 21.5999 20.0745 21.5999 21.4Z" fill="black"/>
</svg>
