<svg width="196" height="90" viewBox="0 0 196 90" fill="none" xmlns="http://www.w3.org/2000/svg">
<g clip-path="url(#clip0_2592_19140)" filter="url(#filter0_ddd_2592_19140)">
<path d="M154.123 22.0586H42.9496C29.1327 22.0586 17.9319 33.2776 17.9319 47.117V47.8402C17.9319 61.6796 29.1327 72.8986 42.9496 72.8986H154.123C167.94 72.8986 179.14 61.6796 179.14 47.8402V47.117C179.14 33.2776 167.94 22.0586 154.123 22.0586Z" fill="#00FF91"/>
<path d="M30.0851 40.7223H37.4342C37.4342 40.7223 37.5915 36.426 41.5234 36.426C41.5234 36.426 44.7404 36.426 44.383 39.6483C44.383 39.6483 44.383 42.1545 39.7362 43.2285C39.7362 43.2285 32.5872 44.6607 31.1575 47.8829C31.1575 47.8829 27.2255 52.5373 31.1575 58.6238C31.1575 58.6238 33.6596 62.204 40.0936 62.5621C40.0936 62.5621 47.9575 63.2781 51.5319 57.9077C51.5319 57.9077 52.9617 56.1176 53.3192 52.5373H45.8128C45.8128 52.5373 45.0979 56.8336 40.4511 56.8336C40.4511 56.8336 37.5915 56.4756 37.2341 53.9694C36.8766 51.4632 40.4511 50.3891 40.4511 50.3891C40.4511 50.3891 45.8128 49.315 48.6724 47.1669C48.6724 47.1669 54.3915 43.2285 50.817 35.71C50.817 35.71 47.9575 29.6235 39.0213 31.0556C39.0213 31.0556 31.1575 31.4136 30.0851 40.7223Z" fill="black"/>
<path d="M55.1993 41.7678V60.9295H61.7656V50.1887C61.7656 50.1887 61.5404 47.883 63.6851 47.1669C63.6851 47.1669 66.5447 46.4508 66.9021 49.3151V61.0906H73.3755V47.7648C73.3755 47.7648 72.9787 41.7965 67.617 41.4384C67.617 41.4384 64.0426 40.7224 61.5404 43.5866L61.301 41.7678" fill="black"/>
<path d="M100.384 33.2036H107.372V55.0433H118.017V61.0904H100.384V33.2036Z" fill="black"/>
<path d="M126.953 33.2036H120.004V60.9723H126.953V33.2036Z" fill="black"/>
<path d="M129.019 33.2036V61.1298H135.968V49.8734H145.54V44.1843H135.889V39.2901H146.613V33.2036H129.019Z" fill="black"/>
<path d="M148.718 33.2036V60.9723H166.59V54.8464H155.549V49.6729H165.557V43.9445H155.549V39.2901H166.59V33.2036H148.718Z" fill="black"/>
<path d="M89.0638 33.2036V43.2284C84.7745 40.0061 80.1277 42.1543 80.1277 42.1543C72.6213 46.4507 75.8383 55.7594 75.8383 55.7594C78.3404 62.5619 84.7745 61.4878 84.7745 61.4878C88.3489 60.7718 89.4213 58.9816 89.4213 58.9816L89.5392 61.0904H95.4979V33.2036H89.0638ZM85.3106 55.7594C83.2374 55.7594 81.5574 53.8368 81.5574 51.463C81.5574 49.0893 83.2374 47.1667 85.3106 47.1667C87.3838 47.1667 89.0638 49.0893 89.0638 51.463C89.0638 53.8368 87.3838 55.7594 85.3106 55.7594Z" fill="black"/>
<path d="M153.762 18.4315H55.3745L60.9792 12.9501C62.1946 11.4285 60.6754 10.2112 60.6754 10.2112C59.1563 9.60253 58.2448 10.5155 58.2448 10.5155L48.8225 19.9531L58.2448 29.3907C58.2448 29.3907 59.1563 30.3037 60.6754 29.6951C60.6754 29.6951 62.1946 28.4778 60.9792 26.9561L55.9535 22.0404H153.072C166.68 22.0404 177.711 33.0892 177.711 46.7193C177.711 60.3494 166.68 71.3982 153.072 71.3982H43.2856C29.6776 71.3982 18.6468 60.3494 18.6468 46.7193C18.6468 33.0892 29.6776 22.0404 43.2856 22.0404H45.0979L45.4625 22.0297C46.7957 22.0619 47.5106 20.9055 47.5106 19.9137C47.5106 18.8397 46.4383 18.1236 45.4553 18.0771H42.2383C26.6429 18.0735 14 31.095 14 46.7157C14 62.3365 26.6429 74.9999 42.2383 74.9999H153.762C169.357 74.9999 182 62.3365 182 46.7157C182 31.095 169.357 18.4315 153.762 18.4315Z" fill="black"/>
</g>
<defs>
<filter id="filter0_ddd_2592_19140" x="0" y="-1" width="196" height="94" filterUnits="userSpaceOnUse" color-interpolation-filters="sRGB">
<feFlood flood-opacity="0" result="BackgroundImageFix"/>
<feColorMatrix in="SourceAlpha" type="matrix" values="0 0 0 0 0 0 0 0 0 0 0 0 0 0 0 0 0 0 127 0" result="hardAlpha"/>
<feOffset dy="5"/>
<feGaussianBlur stdDeviation="2.5"/>
<feColorMatrix type="matrix" values="0 0 0 0 0 0 0 0 0 0 0 0 0 0 0 0 0 0 0.2 0"/>
<feBlend mode="normal" in2="BackgroundImageFix" result="effect1_dropShadow_2592_19140"/>
<feColorMatrix in="SourceAlpha" type="matrix" values="0 0 0 0 0 0 0 0 0 0 0 0 0 0 0 0 0 0 127 0" result="hardAlpha"/>
<feOffset dy="3"/>
<feGaussianBlur stdDeviation="7"/>
<feColorMatrix type="matrix" values="0 0 0 0 0 0 0 0 0 0 0 0 0 0 0 0 0 0 0.12 0"/>
<feBlend mode="normal" in2="effect1_dropShadow_2592_19140" result="effect2_dropShadow_2592_19140"/>
<feColorMatrix in="SourceAlpha" type="matrix" values="0 0 0 0 0 0 0 0 0 0 0 0 0 0 0 0 0 0 127 0" result="hardAlpha"/>
<feOffset dy="8"/>
<feGaussianBlur stdDeviation="5"/>
<feColorMatrix type="matrix" values="0 0 0 0 0 0 0 0 0 0 0 0 0 0 0 0 0 0 0.14 0"/>
<feBlend mode="normal" in2="effect2_dropShadow_2592_19140" result="effect3_dropShadow_2592_19140"/>
<feBlend mode="normal" in="SourceGraphic" in2="effect3_dropShadow_2592_19140" result="shape"/>
</filter>
<clipPath id="clip0_2592_19140">
<rect width="168" height="65" fill="white" transform="translate(14 10)"/>
</clipPath>
</defs>
</svg>
